<?xml version="1.0" encoding="UTF-8" standalone="no"?>
<!-- Created with Inkscape (http://www.inkscape.org/) -->

<svg
   width="200"
   height="1000"
   viewBox="0 0 52.916665 264.58333"
   version="1.1"
   id="svg718"
   inkscape:version="1.2.2 (732a01da63, 2022-12-09)"
   sodipodi:docname="nitka.svg"
   xmlns:inkscape="http://www.inkscape.org/namespaces/inkscape"
   xmlns:sodipodi="http://sodipodi.sourceforge.net/DTD/sodipodi-0.dtd"
   xmlns="http://www.w3.org/2000/svg"
   xmlns:svg="http://www.w3.org/2000/svg">
  <sodipodi:namedview
     id="namedview720"
     pagecolor="#ffffff"
     bordercolor="#000000"
     borderopacity="0.25"
     inkscape:showpageshadow="2"
     inkscape:pageopacity="0.0"
     inkscape:pagecheckerboard="0"
     inkscape:deskcolor="#d1d1d1"
     inkscape:document-units="mm"
     showgrid="true"
     showguides="true"
     inkscape:zoom="0.74208053"
     inkscape:cx="384.72914"
     inkscape:cy="489.16524"
     inkscape:window-width="2400"
     inkscape:window-height="1321"
     inkscape:window-x="-9"
     inkscape:window-y="-9"
     inkscape:window-maximized="1"
     inkscape:current-layer="layer1">
    <inkscape:grid
       type="xygrid"
       id="grid839" />
    <sodipodi:guide
       position="42.333332,92.604166"
       orientation="1,0"
       id="guide841"
       inkscape:locked="false" />
  </sodipodi:namedview>
  <defs
     id="defs715" />
  <g
     inkscape:label="Layer 1"
     inkscape:groupmode="layer"
     id="layer1">
    <path
       style="fill:none;stroke:#333333;stroke-width:0.264583"
       d="M 42.333333,0 C 45.621397,10.130679 33.139583,21.906007 23.19446,19.916982 -0.51365933,15.175358 52.011661,3.9067541 34.539576,33.026895 28.682608,42.788509 5.2128956,49.039933 15.378936,64.288992 20.699411,72.269706 44.26078,84.76213 47.397376,69.079154 50.238847,54.871797 19.03775,48.141056 10.840889,80.928497 2.1834816,115.55813 74.632303,117.73211 24.202915,155.55415 8.7819896,167.11985 5.3342637,149.98771 20.42121,142.44424 c 18.085361,-9.04268 25.095137,21.73007 17.395844,33.27901 -6.714111,10.07116 -18.476672,18.58404 -28.2367334,8.82398 -8.3020938,-8.3021 27.0565064,-19.59563 32.2705524,1.26057 5.824313,23.29724 -17.112541,32.90213 -21.429663,50.17062 -2.326056,9.30422 20.020064,19.86408 21.912123,28.60491"
       id="path963" />
  </g>
</svg>
